<svg width="300" height="300" viewBox="0 0 300 300" fill="none" xmlns="http://www.w3.org/2000/svg">
<path d="M202.534 92.008C202.534 96.7013 201.339 101.181 198.95 105.448C196.646 109.715 193.488 113.469 189.478 116.712C185.552 119.869 180.902 122.387 175.526 124.264C170.235 126.141 164.603 127.08 158.63 127.08C156.496 127.08 154.79 126.824 153.51 126.312C152.315 125.715 150.95 124.605 149.414 122.984C145.147 132.285 141.648 140.861 138.918 148.712C136.272 156.477 134.182 164.029 132.646 171.368C129.403 170.6 126.758 169.235 124.71 167.272C122.662 165.395 120.784 163.005 119.078 160.104C119.931 158.483 120.955 156.349 122.15 153.704C123.344 151.059 124.795 147.816 126.502 143.976C128.208 140.051 130.171 135.4 132.39 130.024C134.694 124.563 137.382 118.205 140.454 110.952C141.819 107.624 143.014 104.723 144.038 102.248C145.062 99.7733 145.958 97.4693 146.726 95.336C147.494 93.1173 148.176 90.9413 148.774 88.808C149.456 86.6747 150.139 84.328 150.822 81.768C146.811 83.048 143.099 84.5413 139.686 86.248C136.358 87.9547 133.584 89.7467 131.366 91.624C130.598 91.112 129.787 90.344 128.934 89.32C128.166 88.296 127.44 87.1867 126.758 85.992C126.075 84.712 125.478 83.432 124.966 82.152C124.454 80.872 124.155 79.72 124.07 78.696C126.544 76.9893 129.616 75.4107 133.286 73.96C136.955 72.5093 140.88 71.272 145.062 70.248C149.243 69.1387 153.552 68.2853 157.99 67.688C162.512 67.0907 166.822 66.792 170.918 66.792C175.782 66.792 180.176 67.432 184.102 68.712C188.027 69.9067 191.355 71.6133 194.086 73.832C196.816 76.0507 198.907 78.696 200.358 81.768C201.808 84.84 202.534 88.2533 202.534 92.008ZM179.75 76.648C176.507 76.648 173.179 76.904 169.766 77.416L171.302 79.72C170.448 80.8293 169.382 82.4933 168.102 84.712C166.822 86.9307 165.414 89.6187 163.878 92.776C162.342 95.848 160.635 99.304 158.758 103.144C156.966 106.984 155.046 111.037 152.998 115.304C159.654 115.304 165.712 114.707 171.174 113.512C176.635 112.232 181.286 110.525 185.126 108.392C189.051 106.173 192.08 103.613 194.214 100.712C196.432 97.8107 197.542 94.696 197.542 91.368C197.542 86.9307 196.048 83.3893 193.062 80.744C190.075 78.0133 185.638 76.648 179.75 76.648Z" fill="white"/>
<path d="M189.81 178.624C192.541 178.624 194.674 179.392 196.21 180.928C197.831 182.464 198.642 184.597 198.642 187.328C198.642 188.011 198.599 188.736 198.514 189.504C198.429 190.187 198.258 190.784 198.002 191.296C196.893 191.125 195.655 190.997 194.29 190.912C192.925 190.741 191.303 190.656 189.426 190.656C185.586 190.656 181.746 190.997 177.906 191.68C174.066 192.363 170.397 192.917 166.898 193.344C163.058 202.389 159.901 210.88 157.426 218.816C154.951 226.752 153.031 234.603 151.666 242.368C148.765 241.685 146.205 240.448 143.986 238.656C141.767 236.864 139.677 234.347 137.714 231.104C138.311 229.739 139.037 228.117 139.89 226.24C140.743 224.277 141.767 221.845 142.962 218.944C144.157 215.957 145.565 212.373 147.186 208.192C148.893 203.925 150.898 198.848 153.202 192.96C149.618 191.765 147.271 189.675 146.162 186.688C146.589 186.261 147.783 185.792 149.746 185.28C151.709 184.683 154.098 184.043 156.914 183.36C158.194 180.032 159.303 177.088 160.242 174.528C161.181 171.883 162.034 169.408 162.802 167.104C163.57 164.715 164.253 162.411 164.85 160.192C165.533 157.888 166.13 155.456 166.642 152.896H166.002C162.759 152.896 160.114 152.128 158.066 150.592C156.103 149.056 155.122 147.051 155.122 144.576C155.122 143.893 155.207 143.083 155.378 142.144C155.634 141.205 155.933 140.395 156.274 139.712C157.895 139.968 159.474 140.139 161.01 140.224C162.631 140.309 164.722 140.352 167.282 140.352C172.658 140.352 177.693 140.224 182.386 139.968C187.079 139.627 191.303 139.285 195.058 138.944C198.898 138.603 202.183 138.304 204.914 138.048C207.645 137.707 209.735 137.536 211.186 137.536C213.149 137.536 214.898 138.56 216.434 140.608C217.97 142.656 219.165 145.557 220.018 149.312C217.287 149.056 215.069 148.885 213.362 148.8C211.741 148.715 210.29 148.672 209.01 148.672C204.658 148.672 200.647 148.885 196.978 149.312C193.394 149.653 189.981 150.08 186.738 150.592C186.226 151.36 185.629 152.341 184.946 153.536C184.349 154.731 183.538 156.437 182.514 158.656C181.49 160.789 180.167 163.605 178.546 167.104C177.01 170.603 175.047 175.04 172.658 180.416C175.986 179.904 179.143 179.477 182.13 179.136C185.202 178.795 187.762 178.624 189.81 178.624Z" fill="white"/>
<path d="M120.044 178.704C122.177 182.373 123.244 185.915 123.244 189.328C123.244 190.096 123.159 190.779 122.988 191.376C122.903 192.059 122.775 192.741 122.604 193.424C121.153 193.253 119.617 193.125 117.996 193.04C116.46 192.955 114.839 192.912 113.132 192.912C111.084 192.912 108.993 192.955 106.86 193.04C104.812 193.211 102.508 193.424 99.948 193.68C97.388 193.936 94.5293 194.277 91.372 194.704C88.2147 195.131 84.5453 195.685 80.364 196.368C78.4013 195.685 76.4387 194.32 74.476 192.272C72.5133 190.309 70.6787 187.92 68.972 185.104C69.8253 183.227 70.892 180.923 72.172 178.192C73.452 175.376 74.9453 172.005 76.652 168.08C78.3587 164.069 80.236 159.419 82.284 154.128C84.4173 148.752 86.6787 142.565 89.068 135.568C90.604 130.96 91.9267 126.907 93.036 123.408C94.1453 119.909 95.1267 116.539 95.98 113.296C96.9187 109.968 97.8147 106.512 98.668 102.928C99.5213 99.344 100.46 95.2053 101.484 90.512C104.897 91.1947 107.841 92.4747 110.316 94.352C112.876 96.144 115.308 98.7467 117.612 102.16C116.929 103.269 116.033 105.061 114.924 107.536C113.815 110.011 112.492 113.04 110.956 116.624C109.505 120.123 107.884 124.133 106.092 128.656C104.3 133.093 102.423 137.872 100.46 142.992C98.5827 148.027 96.748 152.763 94.956 157.2C93.164 161.637 91.5427 165.648 90.092 169.232C88.7267 172.816 87.6173 175.888 86.764 178.448C85.9107 181.008 85.484 182.928 85.484 184.208C86.8493 184.123 88.0867 184.037 89.196 183.952C90.3053 183.867 91.4573 183.739 92.652 183.568C93.8467 183.312 95.1267 183.056 96.492 182.8C97.9427 182.459 99.6493 182.032 101.612 181.52C103.319 181.093 104.897 180.752 106.348 180.496C107.799 180.155 109.207 179.899 110.572 179.728C112.023 179.472 113.473 179.301 114.924 179.216C116.46 179.045 118.167 178.875 120.044 178.704Z" fill="white"/>
</svg>
