<svg width="400" height="400" viewBox="0 0 400 400" fill="none" xmlns="http://www.w3.org/2000/svg">
<path d="M81.3531 211.4H124.153V245H36.9531V103.4H81.3531V211.4ZM253.925 152C253.925 160.933 251.858 169.067 247.725 176.4C243.592 183.6 237.458 189.333 229.325 193.6C221.325 197.867 211.592 200 200.125 200H182.525V245H138.125V103.4H200.125C217.458 103.4 230.725 107.8 239.925 116.6C249.258 125.4 253.925 137.2 253.925 152ZM195.125 165C204.325 165 208.925 160.667 208.925 152C208.925 143.333 204.325 139 195.125 139H182.525V165H195.125ZM368.008 103.4V138.6H312.408V158.2H352.408V191.6H312.408V245H268.008V103.4H368.008Z" fill="#3246D3"/>
<path d="M81.3531 211.4H80.3531V212.4H81.3531V211.4ZM124.153 211.4H125.153V210.4H124.153V211.4ZM124.153 245V246H125.153V245H124.153ZM36.9531 245H35.9531V246H36.9531V245ZM36.9531 103.4V102.4H35.9531V103.4H36.9531ZM81.3531 103.4H82.3531V102.4H81.3531V103.4ZM81.3531 212.4H124.153V210.4H81.3531V212.4ZM123.153 211.4V245H125.153V211.4H123.153ZM124.153 244H36.9531V246H124.153V244ZM37.9531 245V103.4H35.9531V245H37.9531ZM36.9531 104.4H81.3531V102.4H36.9531V104.4ZM80.3531 103.4V211.4H82.3531V103.4H80.3531ZM247.725 176.4L248.592 176.898L248.596 176.891L247.725 176.4ZM229.325 193.6L228.86 192.714L228.854 192.718L229.325 193.6ZM182.525 200V199H181.525V200H182.525ZM182.525 245V246H183.525V245H182.525ZM138.125 245H137.125V246H138.125V245ZM138.125 103.4V102.4H137.125V103.4H138.125ZM239.925 116.6L239.234 117.323L239.239 117.328L239.925 116.6ZM182.525 139V138H181.525V139H182.525ZM182.525 165H181.525V166H182.525V165ZM252.925 152C252.925 160.772 250.898 168.735 246.854 175.909L248.596 176.891C252.819 169.399 254.925 161.094 254.925 152H252.925ZM246.858 175.902C242.829 182.92 236.844 188.526 228.86 192.714L229.79 194.486C238.073 190.14 244.354 184.28 248.592 176.898L246.858 175.902ZM228.854 192.718C221.033 196.889 211.47 199 200.125 199V201C211.713 201 221.617 198.844 229.796 194.482L228.854 192.718ZM200.125 199H182.525V201H200.125V199ZM181.525 200V245H183.525V200H181.525ZM182.525 244H138.125V246H182.525V244ZM139.125 245V103.4H137.125V245H139.125ZM138.125 104.4H200.125V102.4H138.125V104.4ZM200.125 104.4C217.296 104.4 230.279 108.757 239.234 117.323L240.616 115.877C231.171 106.843 217.621 102.4 200.125 102.4V104.4ZM239.239 117.328C248.341 125.909 252.925 137.429 252.925 152H254.925C254.925 136.971 250.176 124.891 240.611 115.872L239.239 117.328ZM195.125 166C199.865 166 203.606 164.885 206.161 162.478C208.727 160.06 209.925 156.503 209.925 152H207.925C207.925 156.163 206.823 159.106 204.789 161.022C202.744 162.948 199.585 164 195.125 164V166ZM209.925 152C209.925 147.497 208.727 143.94 206.161 141.522C203.606 139.115 199.865 138 195.125 138V140C199.585 140 202.744 141.052 204.789 142.978C206.823 144.894 207.925 147.837 207.925 152H209.925ZM195.125 138H182.525V140H195.125V138ZM181.525 139V165H183.525V139H181.525ZM182.525 166H195.125V164H182.525V166ZM368.008 103.4H369.008V102.4H368.008V103.4ZM368.008 138.6V139.6H369.008V138.6H368.008ZM312.408 138.6V137.6H311.408V138.6H312.408ZM312.408 158.2H311.408V159.2H312.408V158.2ZM352.408 158.2H353.408V157.2H352.408V158.2ZM352.408 191.6V192.6H353.408V191.6H352.408ZM312.408 191.6V190.6H311.408V191.6H312.408ZM312.408 245V246H313.408V245H312.408ZM268.008 245H267.008V246H268.008V245ZM268.008 103.4V102.4H267.008V103.4H268.008ZM367.008 103.4V138.6H369.008V103.4H367.008ZM368.008 137.6H312.408V139.6H368.008V137.6ZM311.408 138.6V158.2H313.408V138.6H311.408ZM312.408 159.2H352.408V157.2H312.408V159.2ZM351.408 158.2V191.6H353.408V158.2H351.408ZM352.408 190.6H312.408V192.6H352.408V190.6ZM311.408 191.6V245H313.408V191.6H311.408ZM312.408 244H268.008V246H312.408V244ZM269.008 245V103.4H267.008V245H269.008ZM268.008 104.4H368.008V102.4H268.008V104.4Z" fill="black"/>
</svg>
